<svg width="714" height="714" viewBox="0 0 714 714" fill="none" xmlns="http://www.w3.org/2000/svg">
  <path d="M297.345 196.072L59.9577 596.747H666.209L440.509 196.072H297.345Z" fill="#FFE18B" />
  <path
    d="M488.098 372.244C491.226 365.904 492.872 358.935 492.911 351.865C492.949 344.795 491.38 337.809 488.321 331.435C485.263 325.061 480.794 319.466 475.255 315.073C469.715 310.68 463.249 307.604 456.346 306.077C453.373 305.426 450.659 303.908 448.549 301.715V301.679C444.508 297.452 443.815 293.661 438.082 282.173C437.468 280.93 436.954 279.931 436.654 279.36L388.894 297.881L401.839 337.458C399.177 345.815 398.925 354.753 401.112 363.246C403.299 371.74 407.837 379.444 414.205 385.475C420.572 391.507 428.512 395.62 437.111 397.344C445.711 399.068 454.622 398.332 462.822 395.22C463.214 399.14 464.687 402.873 467.077 406.005C469.467 409.136 472.679 411.542 476.357 412.954C480.034 414.366 484.031 414.729 487.902 414.002C491.774 413.275 495.367 411.487 498.282 408.838C501.197 406.188 503.318 402.781 504.41 398.996C505.501 395.212 505.52 391.198 504.464 387.403C503.408 383.608 501.318 380.182 498.428 377.505C495.539 374.828 491.962 373.007 488.098 372.244Z"
    fill="#262626" />
  <path
    d="M347.575 396.341C360.446 396.341 370.88 385.907 370.88 373.036C370.88 360.165 360.446 349.731 347.575 349.731C334.704 349.731 324.27 360.165 324.27 373.036C324.27 385.907 334.704 396.341 347.575 396.341Z"
    fill="#262626" />
  <path
    d="M422.531 311.482C422.552 307.383 420.959 303.441 418.095 300.508C415.232 297.575 411.328 295.887 407.23 295.81L406.266 285.314C405.983 281.986 405.046 278.746 403.508 275.78C401.971 272.814 399.863 270.181 397.306 268.031C394.749 265.882 391.793 264.258 388.608 263.253C385.422 262.247 382.069 261.881 378.741 262.174L340.078 265.779C335.017 266.281 330.36 268.77 327.131 272.7C323.901 276.629 322.361 281.679 322.849 286.742L327.133 333.966C327.471 337.932 328.588 341.791 330.42 345.324C332.252 348.857 334.764 351.994 337.81 354.555C340.856 357.116 344.378 359.051 348.173 360.248C351.969 361.446 355.963 361.883 359.927 361.534L361.72 361.362L364.14 387.538L415.212 382.782L412.356 351.781H412.314L410.043 326.855C413.579 326.127 416.753 324.198 419.029 321.396C421.305 318.595 422.543 315.092 422.531 311.482Z"
    fill="white" />
  <path
    d="M404.475 318.459C403.333 318.096 402.323 317.402 401.575 316.465C400.827 315.528 400.373 314.391 400.271 313.196C400.169 312.002 400.424 310.804 401.003 309.754C401.582 308.704 402.459 307.85 403.524 307.298C404.589 306.747 405.793 306.524 406.985 306.657C408.176 306.79 409.301 307.274 410.218 308.047C411.135 308.819 411.802 309.847 412.135 310.998C412.467 312.15 412.451 313.375 412.088 314.517C411.6 316.048 410.524 317.323 409.097 318.062C407.669 318.801 406.007 318.944 404.475 318.459ZM407.286 309.613C406.682 309.421 406.034 309.412 405.425 309.588C404.816 309.764 404.273 310.117 403.864 310.602C403.456 311.086 403.2 311.682 403.129 312.312C403.059 312.942 403.177 313.579 403.468 314.142C403.76 314.705 404.212 315.169 404.767 315.475C405.322 315.781 405.956 315.916 406.588 315.862C407.219 315.808 407.821 315.568 408.316 315.173C408.812 314.777 409.179 314.243 409.371 313.639C409.622 312.83 409.543 311.954 409.152 311.203C408.761 310.451 408.089 309.885 407.282 309.626L407.286 309.613Z"
    fill="#262626" />
  <path
    d="M361.612 361.405L392.022 357.628C392.217 357.604 392.415 357.65 392.58 357.758C392.745 357.866 392.865 358.029 392.921 358.219C392.976 358.408 392.961 358.611 392.88 358.79C392.799 358.97 392.657 359.115 392.479 359.199L362.712 373.422L361.612 361.405Z"
    fill="#262626" />
  <path
    d="M401.253 313.839C400.932 313.744 400.655 313.538 400.469 313.259C400.284 312.979 400.203 312.644 400.241 312.311C400.419 310.668 401.025 309.1 401.999 307.765C402.973 306.43 404.28 305.373 405.79 304.702C407.233 304.104 408.798 303.86 410.355 303.991C411.911 304.122 413.413 304.624 414.736 305.455C415.052 305.662 415.274 305.986 415.351 306.356C415.429 306.726 415.356 307.112 415.15 307.429C414.943 307.746 414.618 307.967 414.248 308.044C413.878 308.122 413.492 308.05 413.175 307.843C412.254 307.273 411.212 306.928 410.133 306.835C409.054 306.742 407.968 306.903 406.963 307.307C405.912 307.775 405.002 308.511 404.325 309.441C403.648 310.371 403.228 311.463 403.106 312.607C403.086 312.794 403.029 312.975 402.939 313.14C402.848 313.305 402.726 313.45 402.58 313.568C402.433 313.686 402.264 313.773 402.084 313.826C401.903 313.878 401.714 313.894 401.527 313.873C401.435 313.869 401.344 313.857 401.253 313.839Z"
    fill="#262626" />
  <path
    d="M333.996 314.169C335.65 314.385 337.165 313.219 337.381 311.565C337.596 309.91 336.43 308.395 334.776 308.179C333.122 307.964 331.607 309.13 331.391 310.784C331.175 312.438 332.342 313.954 333.996 314.169Z"
    fill="#262626" />
  <path
    d="M366.433 314.63C368.087 314.845 369.603 313.679 369.818 312.025C370.034 310.371 368.868 308.856 367.214 308.64C365.56 308.424 364.044 309.591 363.828 311.245C363.613 312.899 364.779 314.414 366.433 314.63Z"
    fill="#262626" />
  <path
    d="M345.807 324.809C345.694 324.795 345.584 324.766 345.48 324.723C343.292 323.884 341.063 322.758 341.146 320.846C341.223 320.127 341.58 319.467 342.141 319.01C342.307 318.845 342.498 318.654 342.71 318.401C343.51 317.427 344.005 316.239 344.135 314.986L345.772 301.922C345.821 301.546 346.017 301.206 346.318 300.975C346.618 300.744 346.997 300.641 347.373 300.69C347.748 300.739 348.089 300.935 348.32 301.236C348.551 301.536 348.653 301.915 348.604 302.291L346.967 315.355C346.755 317.132 346.036 318.81 344.897 320.19C344.625 320.508 344.408 320.739 344.217 320.93C344.921 321.393 345.68 321.765 346.478 322.038C346.808 322.16 347.083 322.4 347.247 322.712C347.411 323.025 347.454 323.386 347.368 323.728C347.281 324.07 347.071 324.368 346.778 324.564C346.485 324.761 346.129 324.842 345.78 324.791L345.807 324.809Z"
    fill="#262626" />
  <path
    d="M349.053 337.912C347.143 337.636 345.316 336.945 343.701 335.889C343.389 335.674 343.175 335.344 343.107 334.971C343.039 334.598 343.121 334.213 343.337 333.902C343.552 333.59 343.883 333.376 344.255 333.308C344.628 333.24 345.013 333.322 345.325 333.538C345.367 333.543 348.415 335.625 351.484 335.06C352.326 334.873 353.121 334.517 353.82 334.012C354.52 333.508 355.109 332.867 355.553 332.127C355.653 331.96 355.785 331.816 355.943 331.702C356.1 331.588 356.279 331.507 356.469 331.465C356.658 331.423 356.855 331.42 357.046 331.456C357.237 331.492 357.418 331.567 357.579 331.676C357.74 331.785 357.877 331.925 357.982 332.089C358.087 332.252 358.157 332.436 358.189 332.627C358.22 332.819 358.212 333.015 358.165 333.204C358.118 333.392 358.033 333.569 357.916 333.724C357.266 334.784 356.405 335.699 355.387 336.412C354.369 337.126 353.215 337.622 351.997 337.87C351.024 338.039 350.03 338.053 349.053 337.912Z"
    fill="#262626" />
  <path d="M413.778 367.808L362.104 372.575L364.298 396.357L415.972 391.591L413.778 367.808Z"
    fill="#F9B800" />
  <path
    d="M340.814 267.593C345.355 267.236 349.689 270.97 352.238 274.29C356.522 279.888 358.328 286.714 361.627 292.854C368.174 304.992 384.118 306.513 395.734 301.458L439.503 285.129C438.417 281.637 432.805 261.895 412.735 252.342C403.448 247.998 393.09 246.479 382.947 247.972L346.111 249.9C341.824 250.093 337.652 251.351 333.973 253.563C327.312 257.668 320.029 266.415 322.607 284.886C323.194 280.345 325.328 276.145 328.649 272.992C331.97 269.84 336.276 267.928 340.842 267.579L340.814 267.593Z"
    fill="#262626" />
  <path
    d="M325.734 390.03C325.734 390.03 309.169 392.35 298.288 425.601C295.596 433.826 292.74 441.966 289.441 449.991L267.115 500.642L283.372 570.536L319.822 546.831L307.648 515.351C300.808 498.929 298.795 480.422 303.957 463.414L325.734 390.03Z"
    fill="white" />
  <path
    d="M468.541 525.133L316.837 542.904C310.033 526.032 308.726 524.483 301.929 507.625C296.368 493.848 295.646 478.591 299.88 464.35L321.107 393.2C321.573 391.62 322.525 390.226 323.827 389.216C325.129 388.207 326.715 387.632 328.361 387.573L462.194 382.483C465.457 441.066 465.314 466.549 468.541 525.133Z"
    fill="#F9B800" />
  <path
    d="M304.614 336.687C309.355 339.4 312.132 344.355 314.61 349.025C317.478 354.389 319.99 359.937 322.128 365.632C326.408 376.994 329.157 388.874 330.303 400.961C331.43 412.788 330.862 424.716 328.618 436.382C326.487 447.335 322.852 457.941 317.816 467.898C312.78 477.889 306.299 487.082 298.58 495.18C297.628 496.194 296.638 497.189 295.61 498.165C293.625 500.086 296.653 503.113 298.638 501.192C306.959 493.103 314.029 483.819 319.615 473.646C325.234 463.478 329.406 452.574 332.01 441.252C334.714 429.344 335.697 417.11 334.93 404.924C334.144 392.322 331.654 379.885 327.526 367.953C325.441 361.9 322.958 355.992 320.093 350.267C317.516 345.112 314.76 339.593 310.426 335.673C309.319 334.66 308.105 333.772 306.806 333.024C304.407 331.653 302.25 335.351 304.664 336.722L304.614 336.687Z"
    fill="white" />
  <path
    d="M412.185 584.766C411.651 568.548 414.798 552.42 421.388 537.592C427.932 522.688 437.704 509.424 449.998 498.758C456.424 493.238 463.793 487.726 472.261 486.048C476.015 485.286 479.908 485.597 483.492 486.948C484.961 487.552 486.366 488.303 487.683 489.19C489.01 490.099 490.242 491.14 491.36 492.296C496.294 497.294 499.6 504.005 501.956 510.574C505.098 519.371 507.168 528.646 508.839 537.82C512.384 557.293 513.285 577.155 511.517 596.868C511.298 599.339 511.036 601.804 510.731 604.265C510.589 605.415 511.817 606.407 512.873 606.407C513.437 606.395 513.975 606.165 514.374 605.766C514.773 605.367 515.003 604.829 515.015 604.265C517.505 583.788 517.159 563.065 513.987 542.683C512.491 532.8 510.293 523.037 507.411 513.466C505.148 506.026 502.021 498.693 497.222 492.524C492.531 486.477 486.027 482.086 478.266 481.414C468.848 480.608 459.952 485.648 452.69 491.111C439.122 501.385 428.069 514.611 420.367 529.788C412.586 544.933 408.311 561.633 407.858 578.654C407.808 580.689 407.858 582.717 407.901 584.752C407.994 587.501 412.278 587.515 412.185 584.752V584.766Z"
    fill="white" />
  <path
    d="M333.716 548.459C331.724 536.864 331.767 525.01 333.845 513.43C335.737 502.884 339.143 492.417 344.755 483.242C347.276 479.056 350.367 475.241 353.937 471.904C355.665 470.316 357.528 468.883 359.506 467.62C361.352 466.425 363.308 465.409 365.347 464.585C369.392 463.003 373.713 462.241 378.056 462.343C382.168 462.393 386.224 463.31 389.958 465.035C393.835 466.837 397.105 469.727 399.369 473.353C402.018 477.673 403.067 482.964 401.511 487.719C400.824 489.796 399.654 491.68 398.098 493.217C396.584 494.702 394.478 496.073 392.25 496.266C391.321 496.332 390.39 496.181 389.531 495.822C388.671 495.464 387.908 494.909 387.302 494.202C385.873 492.652 384.826 490.789 384.246 488.761C381.047 478.23 385.596 466.72 391.015 457.767C396.326 449.141 403.152 441.546 411.164 435.347C419.524 428.874 428.845 423.748 438.789 420.153C449.785 416.191 461.238 413.632 472.875 412.535C475.731 412.249 478.587 412.035 481.443 411.892C482.006 411.878 482.543 411.647 482.942 411.249C483.34 410.85 483.57 410.314 483.585 409.75C483.585 409.182 483.359 408.637 482.958 408.236C482.556 407.834 482.011 407.608 481.443 407.608C468.942 408.15 456.553 410.2 444.543 413.713C433.296 417.018 422.64 422.079 412.97 428.707C403.897 434.957 396.022 442.788 389.723 451.826C383.189 461.351 377.777 473.203 379.155 485.027C379.769 490.318 381.69 495.859 386.295 498.95C391.222 502.235 397.419 499.964 401.254 496.094C403.17 494.103 404.622 491.713 405.507 489.095C406.392 486.477 406.688 483.696 406.373 480.95C405.698 475.318 403.085 470.096 398.983 466.178C392.086 459.545 381.976 457.188 372.658 458.402C362.305 459.752 353.33 465.464 346.64 473.353C339.5 481.8 334.859 492.132 331.881 502.727C328.455 514.932 327.246 527.652 328.311 540.284C328.576 543.418 329.025 546.553 329.525 549.659C329.677 550.206 330.04 550.67 330.534 550.95C331.028 551.23 331.613 551.302 332.16 551.151C332.702 550.991 333.161 550.627 333.441 550.136C333.72 549.645 333.799 549.064 333.659 548.516L333.716 548.459Z"
    fill="white" />
  <path
    d="M547.517 518.535H547.595L536.735 493.26L513.887 440.031C510.598 432.377 507.309 424.718 504.02 417.055C499.536 406.623 495.88 395.335 486.427 388.223C474.289 379.105 455.939 377.228 443.43 386.645C432.784 394.656 429.864 409.208 430.056 421.874C430.313 436.233 435.054 450.198 441.295 462.979C447.721 476.145 453.004 489.854 458.909 503.27L468.548 525.161L323.97 542.069C319.174 542.625 314.492 543.919 310.09 545.903C304.021 548.65 297.847 551.601 291.569 554.757C287.89 556.603 284.296 558.465 280.788 560.34L289.863 596.754H496.094C536.642 596.754 563.432 555.171 547.517 518.535Z"
    fill="white" />
  <path
    d="M608.713 504.902H560.161C557.867 504.9 555.667 503.988 554.045 502.365C552.422 500.743 551.51 498.543 551.508 496.249V447.654C551.51 445.359 552.422 443.159 554.045 441.537C555.667 439.914 557.867 439.002 560.161 439H608.713C611.008 439.002 613.208 439.914 614.831 441.537C616.453 443.159 617.365 445.359 617.367 447.654V496.249C617.365 498.543 616.453 500.743 614.831 502.365C613.208 503.988 611.008 504.9 608.713 504.902ZM560.161 441.856C558.624 441.858 557.151 442.469 556.064 443.556C554.977 444.643 554.366 446.117 554.364 447.654V496.249C554.366 497.786 554.977 499.259 556.064 500.346C557.151 501.433 558.624 502.044 560.161 502.046H608.713C610.251 502.044 611.724 501.433 612.811 500.346C613.898 499.259 614.509 497.786 614.511 496.249V447.654C614.509 446.117 613.898 444.643 612.811 443.556C611.724 442.469 610.251 441.858 608.713 441.856H560.161Z"
    fill="#262626" />
  <path
    d="M573.591 466.632C572.117 466.632 570.675 466.195 569.45 465.376C568.224 464.557 567.268 463.392 566.704 462.03C566.14 460.668 565.992 459.17 566.28 457.724C566.568 456.278 567.278 454.949 568.32 453.907C569.362 452.864 570.691 452.154 572.137 451.867C573.583 451.579 575.081 451.727 576.443 452.291C577.806 452.855 578.97 453.811 579.789 455.036C580.608 456.262 581.045 457.703 581.045 459.178C581.043 461.154 580.257 463.049 578.86 464.447C577.462 465.844 575.567 466.63 573.591 466.632ZM573.591 454.58C572.681 454.58 571.792 454.849 571.036 455.355C570.28 455.86 569.691 456.578 569.343 457.418C568.995 458.258 568.904 459.183 569.081 460.075C569.259 460.967 569.696 461.786 570.339 462.429C570.983 463.072 571.802 463.51 572.694 463.688C573.586 463.865 574.51 463.774 575.351 463.426C576.191 463.078 576.909 462.489 577.414 461.732C577.919 460.976 578.189 460.087 578.189 459.178C578.181 457.963 577.694 456.8 576.833 455.942C575.971 455.085 574.806 454.603 573.591 454.601V454.58Z"
    fill="#262626" />
  <path
    d="M595.247 489.758C593.771 489.758 592.329 489.32 591.102 488.5C589.875 487.679 588.92 486.513 588.357 485.149C587.794 483.784 587.648 482.284 587.939 480.837C588.229 479.39 588.943 478.062 589.989 477.021C591.035 475.98 592.367 475.273 593.815 474.989C595.263 474.705 596.763 474.858 598.124 475.428C599.486 475.997 600.648 476.958 601.462 478.189C602.277 479.419 602.708 480.864 602.701 482.34C602.69 484.31 601.9 486.196 600.503 487.586C599.107 488.976 597.217 489.757 595.247 489.758ZM595.247 477.706C594.338 477.706 593.449 477.976 592.692 478.481C591.936 478.986 591.347 479.704 590.999 480.545C590.651 481.385 590.56 482.309 590.737 483.201C590.915 484.093 591.353 484.913 591.996 485.556C592.639 486.199 593.458 486.637 594.35 486.814C595.242 486.991 596.166 486.9 597.007 486.552C597.847 486.204 598.565 485.615 599.07 484.859C599.576 484.103 599.845 483.214 599.845 482.304C599.843 481.085 599.358 479.917 598.496 479.055C597.634 478.193 596.466 477.708 595.247 477.706Z"
    fill="#262626" />
  <path
    d="M570.18 494.185C569.928 494.182 569.681 494.111 569.466 493.978C569.143 493.783 568.91 493.467 568.819 493.1C568.728 492.733 568.786 492.346 568.981 492.022L594.049 450.403C594.146 450.242 594.274 450.102 594.425 449.99C594.576 449.879 594.748 449.798 594.931 449.753C595.113 449.708 595.302 449.699 595.488 449.728C595.674 449.756 595.852 449.82 596.013 449.917C596.174 450.014 596.314 450.142 596.425 450.293C596.537 450.444 596.617 450.616 596.662 450.798C596.707 450.981 596.716 451.17 596.688 451.356C596.66 451.541 596.595 451.72 596.498 451.881L571.43 493.493C571.301 493.708 571.117 493.885 570.898 494.006C570.679 494.128 570.431 494.19 570.18 494.185Z"
    fill="#262626" />
  <path
    d="M696.156 385.146H541.868C538.459 385.146 535.19 383.792 532.78 381.381C530.37 378.971 529.016 375.702 529.016 372.294V251.77C529.016 248.362 530.37 245.093 532.78 242.683C535.19 240.273 538.459 238.918 541.868 238.918H696.156C699.564 238.918 702.833 240.273 705.244 242.683C707.654 245.093 709.008 248.362 709.008 251.77V372.308C709.004 375.714 707.648 378.979 705.239 381.386C702.829 383.794 699.562 385.146 696.156 385.146ZM541.868 241.789C539.217 241.789 536.674 242.842 534.799 244.717C532.925 246.591 531.872 249.134 531.872 251.785V372.308C531.872 374.959 532.925 377.502 534.799 379.376C536.674 381.251 539.217 382.304 541.868 382.304H696.156C698.807 382.304 701.35 381.251 703.224 379.376C705.099 377.502 706.152 374.959 706.152 372.308V251.77C706.152 249.119 705.099 246.577 703.224 244.702C701.35 242.828 698.807 241.774 696.156 241.774L541.868 241.789Z"
    fill="#262626" />
  <path
    d="M611.759 267.157H556.638C553.073 267.157 550.184 270.047 550.184 273.612V357.7C550.184 361.264 553.073 364.154 556.638 364.154H611.759C615.324 364.154 618.214 361.264 618.214 357.7V273.612C618.214 270.047 615.324 267.157 611.759 267.157Z"
    fill="#F9B800" />
  <path
    d="M656.947 270.156H642.588C640.609 270.156 639.004 271.761 639.004 273.741V288.099C639.004 290.079 640.609 291.683 642.588 291.683H656.947C658.926 291.683 660.531 290.079 660.531 288.099V273.741C660.531 271.761 658.926 270.156 656.947 270.156Z"
    fill="#FFF1C9" />
  <path
    d="M688.458 270.156H674.1C672.12 270.156 670.516 271.761 670.516 273.741V288.099C670.516 290.079 672.12 291.683 674.1 291.683H688.458C690.438 291.683 692.043 290.079 692.043 288.099V273.741C692.043 271.761 690.438 270.156 688.458 270.156Z"
    fill="#FFF1C9" />
  <path
    d="M692.035 309.419H640.377C639.998 309.419 639.635 309.269 639.367 309.001C639.1 308.733 638.949 308.37 638.949 307.991C638.949 307.612 639.1 307.249 639.367 306.981C639.635 306.713 639.998 306.563 640.377 306.563H692.035C692.414 306.563 692.777 306.713 693.045 306.981C693.313 307.249 693.463 307.612 693.463 307.991C693.463 308.37 693.313 308.733 693.045 309.001C692.777 309.269 692.414 309.419 692.035 309.419Z"
    fill="#262626" />
  <path
    d="M692.035 323.949H640.377C639.998 323.949 639.635 323.798 639.367 323.531C639.1 323.263 638.949 322.9 638.949 322.521C638.949 322.142 639.1 321.779 639.367 321.511C639.635 321.243 639.998 321.093 640.377 321.093H692.035C692.414 321.093 692.777 321.243 693.045 321.511C693.313 321.779 693.463 322.142 693.463 322.521C693.463 322.9 693.313 323.263 693.045 323.531C692.777 323.798 692.414 323.949 692.035 323.949Z"
    fill="#262626" />
  <path
    d="M676.584 339.471H640.377C639.998 339.471 639.635 339.321 639.367 339.053C639.1 338.785 638.949 338.422 638.949 338.043C638.949 337.665 639.1 337.301 639.367 337.033C639.635 336.766 639.998 336.615 640.377 336.615H676.584C676.963 336.615 677.326 336.766 677.594 337.033C677.862 337.301 678.012 337.665 678.012 338.043C678.012 338.422 677.862 338.785 677.594 339.053C677.326 339.321 676.963 339.471 676.584 339.471Z"
    fill="#262626" />
  <path
    d="M592.46 295.353V298.923C592.459 300.712 591.765 302.432 590.522 303.719C589.28 305.007 587.586 305.763 585.798 305.827C585.377 305.827 584.97 305.827 584.563 305.827C582.726 305.77 580.984 304.999 579.707 303.677C578.43 302.356 577.718 300.589 577.723 298.752V295.36C577.723 294.277 577.293 293.238 576.527 292.472C575.761 291.706 574.722 291.276 573.639 291.276C572.556 291.276 571.517 291.706 570.751 292.472C569.985 293.238 569.555 294.277 569.555 295.36V332.438C569.555 333.123 569.689 333.801 569.951 334.433C570.213 335.065 570.597 335.64 571.081 336.124C571.565 336.608 572.14 336.992 572.772 337.254C573.405 337.516 574.082 337.65 574.767 337.65H595.416C596.1 337.65 596.778 337.516 597.41 337.254C598.043 336.992 598.617 336.608 599.101 336.124C599.585 335.64 599.969 335.065 600.231 334.433C600.493 333.801 600.628 333.123 600.628 332.438V295.353C600.628 294.27 600.198 293.231 599.432 292.465C598.666 291.699 597.627 291.269 596.544 291.269C595.461 291.269 594.422 291.699 593.656 292.465C592.89 293.231 592.46 294.27 592.46 295.353Z"
    fill="white" />
  <path
    d="M496.944 511.602C496.944 508.154 484.72 505.355 469.633 505.355C454.547 505.355 442.323 508.154 442.323 511.602L439.388 542.419C446.229 541.305 455.81 541.233 464.264 546.489C467.278 548.418 470.605 549.808 474.096 550.594C479.972 551.829 488.819 552.122 499.464 547.609L496.944 511.602Z"
    fill="white" />
  <path
    d="M481.8 552.807C479.111 552.81 476.429 552.538 473.796 551.993C470.148 551.169 466.669 549.719 463.514 547.709C455.303 542.626 445.986 542.797 439.617 543.832L437.789 544.132L440.902 511.531C441.059 505.526 459.737 503.934 469.633 503.934C479.529 503.934 498.251 505.512 498.372 511.545L500.957 548.531L500.014 548.923C494.268 551.435 488.071 552.757 481.8 552.807ZM446.671 540.384C453.124 540.269 459.481 541.963 465.021 545.275C467.89 547.115 471.058 548.441 474.382 549.195C479.608 550.294 487.883 550.722 497.944 546.681L495.516 511.602C495.516 510.446 487.733 506.783 469.633 506.783C451.534 506.783 443.751 510.446 443.751 511.602V511.738L440.981 540.748C442.868 540.508 444.769 540.386 446.671 540.384Z"
    fill="#262626" />
  <path
    d="M500.5 540.5C489.168 545.012 480.593 549.302 474.339 548.066C470.652 547.282 464.734 541.434 461.5 539.5C452.453 534.238 445.282 531.393 438 532.5L434.419 569.208C434.038 572.943 434.446 576.716 435.614 580.284C436.783 583.851 438.687 587.134 441.204 589.92C443.721 592.706 446.794 594.933 450.225 596.457C453.656 597.981 457.368 598.768 461.123 598.768H476.424C480.117 598.768 483.77 598.006 487.155 596.53C490.54 595.054 493.585 592.896 496.098 590.19C498.611 587.484 500.538 584.289 501.76 580.804C502.982 577.319 503.472 573.619 503.199 569.936L500.5 540.5Z"
    fill="#F9B800" />
  <path
    d="M467.463 580.239H467.334C466.958 580.205 466.61 580.022 466.368 579.732C466.125 579.441 466.008 579.067 466.042 578.69L474.931 480.301C475.059 478.806 475.744 477.414 476.852 476.401C477.959 475.389 479.407 474.831 480.908 474.838H502.056C502.435 474.838 502.798 474.989 503.066 475.257C503.334 475.525 503.484 475.888 503.484 476.266C503.484 476.645 503.334 477.008 503.066 477.276C502.798 477.544 502.435 477.694 502.056 477.694H480.908C480.123 477.693 479.366 477.985 478.786 478.514C478.206 479.042 477.844 479.769 477.773 480.55L468.884 578.94C468.852 579.294 468.688 579.624 468.425 579.865C468.162 580.105 467.819 580.239 467.463 580.239Z"
    fill="#262626" />
  <path
    d="M469.576 519.078C468.755 519.078 467.934 519.078 467.12 519.035C458.33 518.703 449.696 516.618 441.723 512.902C441.553 512.823 441.4 512.711 441.273 512.572C441.146 512.434 441.048 512.272 440.984 512.096C440.919 511.919 440.89 511.732 440.898 511.545C440.906 511.357 440.951 511.173 441.031 511.003C441.11 510.833 441.222 510.68 441.36 510.553C441.499 510.426 441.66 510.327 441.837 510.263C442.013 510.199 442.201 510.17 442.388 510.178C442.576 510.186 442.76 510.231 442.93 510.31C450.55 513.865 458.804 515.861 467.206 516.179C477.238 516.54 487.214 514.529 496.323 510.31C496.493 510.23 496.678 510.184 496.866 510.176C497.054 510.167 497.242 510.196 497.419 510.26C497.596 510.324 497.758 510.423 497.897 510.55C498.036 510.678 498.148 510.831 498.227 511.002C498.306 511.173 498.351 511.358 498.358 511.546C498.365 511.734 498.336 511.922 498.27 512.099C498.205 512.275 498.105 512.437 497.976 512.575C497.848 512.713 497.694 512.824 497.522 512.902C488.762 516.953 479.228 519.06 469.576 519.078Z"
    fill="#262626" />
  <path
    d="M379.312 388.095C378.948 388.095 378.597 387.957 378.332 387.707C378.066 387.458 377.906 387.116 377.884 386.752L377.042 372.23C377.02 371.851 377.15 371.479 377.402 371.196C377.654 370.913 378.009 370.741 378.388 370.72C378.767 370.698 379.138 370.827 379.422 371.08C379.705 371.332 379.876 371.687 379.898 372.065L380.74 386.581C380.752 386.769 380.726 386.957 380.665 387.134C380.604 387.312 380.508 387.476 380.384 387.617C380.259 387.757 380.108 387.872 379.938 387.954C379.769 388.036 379.586 388.084 379.398 388.095H379.312Z"
    fill="#262626" />
  <path
    d="M393.792 387.038C393.428 387.039 393.077 386.9 392.812 386.65C392.546 386.401 392.386 386.059 392.364 385.696L391.522 371.173C391.511 370.985 391.537 370.798 391.599 370.62C391.661 370.443 391.757 370.279 391.882 370.139C392.007 369.999 392.158 369.885 392.328 369.803C392.497 369.721 392.68 369.674 392.868 369.663C393.055 369.652 393.243 369.678 393.42 369.74C393.598 369.802 393.761 369.898 393.902 370.023C394.042 370.148 394.156 370.299 394.238 370.468C394.32 370.638 394.367 370.821 394.378 371.009L395.22 385.56C395.232 385.748 395.206 385.936 395.145 386.113C395.084 386.291 394.988 386.455 394.864 386.596C394.739 386.736 394.588 386.851 394.419 386.933C394.249 387.015 394.066 387.063 393.878 387.074L393.792 387.038Z"
    fill="#262626" />
  <path
    d="M245.896 363.682H94.414C91.7629 363.682 89.2203 362.629 87.3457 360.754C85.4711 358.879 84.418 356.337 84.418 353.686V256.996C84.418 254.345 85.4711 251.802 87.3457 249.928C89.2203 248.053 91.7629 247 94.414 247H245.896C248.547 247 251.09 248.053 252.964 249.928C254.839 251.802 255.892 254.345 255.892 256.996V353.664C255.895 354.979 255.639 356.281 255.137 357.496C254.636 358.712 253.9 359.816 252.972 360.747C252.044 361.677 250.941 362.415 249.726 362.919C248.512 363.423 247.211 363.682 245.896 363.682ZM94.414 249.835C92.5203 249.835 90.7042 250.587 89.3652 251.926C88.0262 253.265 87.274 255.081 87.274 256.975V353.664C87.274 355.558 88.0262 357.374 89.3652 358.713C90.7042 360.052 92.5203 360.804 94.414 360.804H245.896C247.79 360.804 249.606 360.052 250.945 358.713C252.284 357.374 253.036 355.558 253.036 353.664V256.996C253.036 255.102 252.284 253.286 250.945 251.947C249.606 250.608 247.79 249.856 245.896 249.856L94.414 249.835Z"
    fill="#262626" />
  <path
    d="M232.285 320.127H168.125C165.053 320.127 162.562 322.618 162.562 325.69V327.71C162.562 330.782 165.053 333.272 168.125 333.272H232.285C235.356 333.272 237.847 330.782 237.847 327.71V325.69C237.847 322.618 235.356 320.127 232.285 320.127Z"
    fill="#FFBB45" />
  <path
    d="M234.706 286.862H165.705C165.327 286.862 164.963 286.712 164.696 286.444C164.428 286.176 164.277 285.813 164.277 285.434C164.277 285.056 164.428 284.692 164.696 284.425C164.963 284.157 165.327 284.006 165.705 284.006H234.706C235.085 284.006 235.448 284.157 235.716 284.425C235.984 284.692 236.134 285.056 236.134 285.434C236.134 285.813 235.984 286.176 235.716 286.444C235.448 286.712 235.085 286.862 234.706 286.862Z"
    fill="#262626" />
  <path
    d="M224.987 302.478H165.725C165.346 302.478 164.983 302.327 164.715 302.059C164.447 301.792 164.297 301.428 164.297 301.05C164.297 300.671 164.447 300.308 164.715 300.04C164.983 299.772 165.346 299.622 165.725 299.622H224.987C225.366 299.622 225.729 299.772 225.997 300.04C226.264 300.308 226.415 300.671 226.415 301.05C226.415 301.428 226.264 301.792 225.997 302.059C225.729 302.327 225.366 302.478 224.987 302.478Z"
    fill="#262626" />
  <path
    d="M116.625 288.405C116.246 288.405 115.883 288.254 115.615 287.986C115.347 287.719 115.197 287.355 115.197 286.977C115.076 281.979 116.939 278.958 118.524 277.316C120.291 275.463 122.713 274.374 125.272 274.282C127.77 274.324 130.151 275.35 131.897 277.138C133.518 278.766 135.468 281.793 135.382 286.962C135.382 287.341 135.231 287.704 134.964 287.972C134.696 288.24 134.333 288.39 133.954 288.39C133.575 288.39 133.212 288.24 132.944 287.972C132.676 287.704 132.526 287.341 132.526 286.962C132.576 282.785 131.098 280.429 129.877 279.187C128.661 277.957 127.021 277.237 125.293 277.173C123.501 277.244 121.807 278.013 120.573 279.315C118.846 281.1 117.974 283.728 118.053 286.92C118.053 287.298 117.903 287.661 117.635 287.929C117.367 288.197 117.004 288.348 116.625 288.348V288.405Z"
    fill="#262626" />
  <path
    d="M142.736 335.057H108.007C107.156 335.058 106.315 334.876 105.54 334.525C104.764 334.173 104.073 333.66 103.513 333.02C102.952 332.38 102.535 331.627 102.289 330.812C102.044 329.997 101.975 329.139 102.088 328.296L106.929 292.182C107.123 290.749 107.829 289.436 108.918 288.485C110.006 287.535 111.403 287.011 112.848 287.012H137.088C138.511 287.01 139.888 287.518 140.969 288.442C142.051 289.367 142.766 290.647 142.986 292.053L148.648 328.167C148.782 329.02 148.73 329.892 148.494 330.722C148.259 331.553 147.846 332.322 147.283 332.978C146.721 333.633 146.023 334.158 145.238 334.517C144.453 334.876 143.599 335.061 142.736 335.057Z"
    fill="#FFF1C9" />
  <path
    d="M396.206 598.439H280.788V573.485H396.206C397.8 573.485 399.329 574.118 400.457 575.246C401.584 576.373 402.218 577.902 402.218 579.497V592.42C402.219 593.21 402.064 593.993 401.762 594.723C401.46 595.453 401.018 596.117 400.459 596.676C399.901 597.235 399.238 597.678 398.508 597.981C397.778 598.283 396.996 598.439 396.206 598.439Z"
    fill="#262626" />
  <path
    d="M293.818 598.439H158.544C156.022 598.463 153.561 597.672 151.525 596.183C149.49 594.694 147.99 592.588 147.248 590.178L114.126 477.88C111.984 470.605 117.617 463.357 125.421 463.357H252.999C255.631 463.327 258.196 464.188 260.277 465.801C262.358 467.413 263.832 469.683 264.458 472.24L293.818 598.439Z"
    fill="#262626" />
  <path
    d="M195.571 551.109C205.922 551.109 214.313 542.718 214.313 532.367C214.313 522.015 205.922 513.624 195.571 513.624C185.219 513.624 176.828 522.015 176.828 532.367C176.828 542.718 185.219 551.109 195.571 551.109Z"
    fill="#FFF1C9" />
  <path
    d="M191.453 519.043C191.133 519.043 190.823 518.934 190.572 518.736C190.32 518.538 190.143 518.262 190.068 517.951L187.826 508.769C187.781 508.586 187.773 508.397 187.802 508.211C187.831 508.026 187.895 507.848 187.993 507.687C188.19 507.363 188.507 507.131 188.876 507.041C189.244 506.951 189.633 507.011 189.957 507.208C190.281 507.405 190.513 507.722 190.603 508.09L192.845 517.272C192.89 517.455 192.898 517.644 192.87 517.83C192.841 518.015 192.776 518.194 192.679 518.354C192.582 518.515 192.453 518.654 192.302 518.765C192.15 518.876 191.978 518.956 191.796 519C191.684 519.028 191.569 519.043 191.453 519.043Z"
    fill="#F9B800" />
  <path
    d="M656.209 598.182H90.1925C89.8137 598.182 89.4505 598.032 89.1827 597.764C88.9149 597.496 88.7645 597.133 88.7645 596.754C88.7645 596.375 88.9149 596.012 89.1827 595.744C89.4505 595.477 89.8137 595.326 90.1925 595.326H656.209C656.587 595.326 656.951 595.477 657.219 595.744C657.486 596.012 657.637 596.375 657.637 596.754C657.637 597.133 657.486 597.496 657.219 597.764C656.951 598.032 656.587 598.182 656.209 598.182Z"
    fill="#262626" />
  <path
    d="M369.046 221C362.912 221.009 356.914 219.199 351.81 215.798C346.707 212.397 342.726 207.558 340.373 201.895C338.02 196.231 337.399 189.997 338.59 183.98C339.781 177.964 342.73 172.436 347.064 168.096C351.397 163.756 356.921 160.799 362.935 159.599C368.95 158.399 375.186 159.01 380.853 161.355C386.52 163.7 391.364 167.674 394.772 172.773C398.181 177.871 400 183.867 400 190C399.988 198.21 396.724 206.081 390.923 211.891C385.122 217.701 377.256 220.976 369.046 221ZM369.046 162.642C363.644 162.642 358.363 164.244 353.871 167.245C349.38 170.246 345.879 174.512 343.812 179.502C341.745 184.493 341.204 189.985 342.258 195.283C343.311 200.581 345.913 205.448 349.732 209.268C353.552 213.087 358.419 215.689 363.717 216.742C369.015 217.796 374.507 217.255 379.498 215.188C384.488 213.121 388.754 209.62 391.755 205.129C394.756 200.637 396.358 195.356 396.358 189.954C396.339 182.717 393.455 175.781 388.337 170.663C383.219 165.545 376.283 162.661 369.046 162.642Z"
    fill="white" />
  <path
    d="M369.931 105.708H367.924C364.864 105.708 362.384 108.188 362.384 111.248V157.044C362.384 160.104 364.864 162.585 367.924 162.585H369.931C372.991 162.585 375.471 160.104 375.471 157.044V111.248C375.471 108.188 372.991 105.708 369.931 105.708Z"
    fill="#262626" />
  <path
    d="M367.881 146.72C352.766 146.948 337.992 151.246 325.113 159.162C312.234 167.078 301.726 178.319 294.696 191.702C294.455 192.158 294.336 192.669 294.35 193.185C294.365 193.701 294.512 194.205 294.779 194.647C295.046 195.089 295.422 195.454 295.872 195.708C296.321 195.961 296.829 196.094 297.345 196.093H440.538C441.054 196.093 441.56 195.959 442.009 195.705C442.458 195.451 442.833 195.085 443.099 194.644C443.365 194.202 443.512 193.699 443.526 193.183C443.54 192.668 443.421 192.158 443.18 191.702C435.981 178.003 425.143 166.556 411.858 158.62C398.573 150.683 383.356 146.566 367.881 146.72Z"
    fill="#FFF1C9" />
  <path
    d="M324.941 182.391C315.545 182.391 307.884 176.044 307.77 175.965C307.48 175.721 307.299 175.372 307.267 174.994C307.235 174.616 307.354 174.242 307.598 173.952C307.843 173.662 308.192 173.481 308.57 173.449C308.947 173.417 309.322 173.536 309.612 173.78C310.24 174.309 325.091 186.547 337.772 173.866L338.636 173.002L339.628 173.716C340.342 174.23 357.064 186.197 369.409 173.859L370.245 173.016L371.23 173.688C374.041 175.491 377.118 176.84 380.348 177.686C387.024 179.371 392.55 178.086 396.77 173.859L397.655 172.974L398.648 173.73C399.312 174.237 415.12 186.054 427.322 173.859C427.593 173.612 427.949 173.479 428.315 173.488C428.682 173.496 429.031 173.645 429.291 173.904C429.55 174.163 429.7 174.511 429.71 174.878C429.72 175.244 429.588 175.6 429.342 175.872C417.247 187.968 401.946 179.335 397.926 176.694C393.086 180.978 386.767 182.277 379.562 180.435C376.415 179.601 373.399 178.333 370.602 176.665C358.464 187.711 343.006 179.243 338.95 176.665C334.302 180.942 329.425 182.391 324.941 182.391Z"
    fill="#D3B970" />
  <path
    d="M284.458 560.933C284.15 560.925 283.854 560.818 283.612 560.627C283.371 560.437 283.197 560.174 283.116 559.878C283.036 559.581 283.054 559.266 283.167 558.98C283.28 558.694 283.482 558.453 283.744 558.291C288.385 555.435 293.197 552.779 298.024 550.315C304.45 547.067 311.068 544.096 317.766 541.49C318.119 541.353 318.512 541.362 318.859 541.514C319.206 541.667 319.478 541.951 319.615 542.304C319.752 542.658 319.744 543.051 319.591 543.398C319.438 543.744 319.154 544.016 318.801 544.154C312.189 546.724 305.635 549.651 299.316 552.864C294.539 555.292 289.798 557.941 285.207 560.718C284.983 560.86 284.723 560.934 284.458 560.933Z"
    fill="#262626" />
  <path
    d="M100.167 519.835L108.442 488.505H61.4968L68.951 520.178C60.4847 523.872 53.5559 530.379 49.3389 538.598C45.1219 546.816 43.876 556.239 45.8124 565.271C47.7488 574.303 52.7484 582.388 59.9638 588.155C67.1793 593.922 76.1669 597.018 85.4034 596.916C94.64 596.815 103.557 593.523 110.645 587.599C117.732 581.674 122.552 573.482 124.29 564.41C126.028 555.338 124.575 545.944 120.179 537.82C115.782 529.696 108.712 523.342 100.167 519.835Z"
    fill="white" />
  <path
    d="M84.966 598.332C75.5471 598.324 66.4115 595.11 59.0625 589.219C51.7134 583.328 46.5888 575.11 44.5319 565.919C42.4751 556.727 43.6085 547.109 47.7457 538.648C51.8828 530.186 58.7773 523.385 67.2945 519.364L59.6904 487.077H110.292L101.866 519.007C110.532 522.882 117.606 529.613 121.907 538.075C126.207 546.538 127.474 556.22 125.496 565.504C123.518 574.788 118.415 583.113 111.038 589.088C103.662 595.062 94.4587 598.325 84.966 598.332ZM63.2961 489.933L70.6146 521.013L69.5222 521.484C61.3555 525.046 54.6714 531.322 50.6029 539.248C46.5343 547.175 45.3315 556.264 47.1983 564.976C49.0651 573.688 53.8866 581.486 60.8457 587.05C67.8049 592.613 76.4736 595.599 85.3827 595.502C94.2918 595.405 102.893 592.23 109.729 586.516C116.565 580.802 121.216 572.901 122.892 564.15C124.568 555.4 123.167 546.339 118.927 538.503C114.686 530.667 107.867 524.538 99.6244 521.156L98.4677 520.677L106.586 489.933H63.2961Z"
    fill="#262626" />
  <path
    d="M84.9517 492.396C98.982 492.396 110.356 489.986 110.356 487.012C110.356 484.039 98.982 481.629 84.9517 481.629C70.9214 481.629 59.5476 484.039 59.5476 487.012C59.5476 489.986 70.9214 492.396 84.9517 492.396Z"
    fill="#262626" />
  <path
    d="M78.0402 491.346C77.7488 491.345 77.4647 491.255 77.2261 491.088C76.9874 490.921 76.8056 490.684 76.7051 490.411C68.0371 466.778 50.1228 447.571 49.9443 447.407C49.8154 447.27 49.7146 447.11 49.6477 446.934C49.5808 446.759 49.5491 446.572 49.5544 446.385C49.5597 446.197 49.6019 446.012 49.6786 445.841C49.7553 445.67 49.865 445.515 50.0014 445.386C50.1379 445.257 50.2984 445.156 50.4737 445.089C50.6491 445.023 50.836 444.991 51.0236 444.996C51.2112 445.001 51.396 445.044 51.5673 445.12C51.7386 445.197 51.8931 445.307 52.0221 445.443C52.2077 445.643 70.5147 465.235 79.3826 489.426C79.5053 489.777 79.486 490.163 79.3286 490.5C79.1712 490.838 78.8883 491.1 78.54 491.232C78.3813 491.299 78.2122 491.337 78.0402 491.346Z"
    fill="#262626" />
  <path
    d="M89.4785 491.539C89.0997 491.539 88.7365 491.389 88.4687 491.121C88.2009 490.853 88.0505 490.49 88.0505 490.111V469.662C88.0505 469.283 88.2009 468.92 88.4687 468.652C88.7365 468.384 89.0997 468.234 89.4785 468.234C89.8572 468.234 90.2204 468.384 90.4882 468.652C90.756 468.92 90.9065 469.283 90.9065 469.662V490.111C90.9065 490.49 90.756 490.853 90.4882 491.121C90.2204 491.389 89.8572 491.539 89.4785 491.539Z"
    fill="#262626" />
  <path
    d="M58.2124 433.112H52.122C52.0078 432.798 51.8792 432.491 51.7436 432.191L56.1775 428.264C56.647 427.86 57.0315 427.367 57.3087 426.813C57.5858 426.259 57.7502 425.655 57.7922 425.037C57.8341 424.419 57.7529 423.799 57.5532 423.212C57.3534 422.626 57.0392 422.085 56.6287 421.621C56.2182 421.157 55.7196 420.779 55.1619 420.51C54.6042 420.24 53.9984 420.084 53.3799 420.05C52.7613 420.017 52.1422 420.106 51.5586 420.314C50.9749 420.522 50.4383 420.843 49.98 421.26L45.3104 425.394C45.239 425.458 45.1819 425.537 45.1105 425.608C44.8178 425.473 44.5179 425.351 44.2109 425.237V419.575C44.1636 418.365 43.6499 417.221 42.7773 416.382C41.9047 415.543 40.7412 415.074 39.5306 415.074C38.32 415.074 37.1565 415.543 36.2839 416.382C35.4114 417.221 34.8976 418.365 34.8503 419.575V425.237C34.4176 425.396 33.9934 425.577 33.5794 425.78C33.448 425.617 33.3048 425.464 33.151 425.323L28.4458 421.26C27.4987 420.505 26.2962 420.147 25.0905 420.259C23.8848 420.372 22.7696 420.948 21.979 421.865C21.1883 422.782 20.7836 423.97 20.8498 425.179C20.916 426.388 21.4479 427.525 22.3339 428.35L27.0606 432.427C27.098 432.46 27.1386 432.488 27.182 432.513C27.0963 432.713 27.0249 432.92 26.9464 433.127H21.0773C19.8431 433.132 18.6612 433.626 17.7892 434.499C16.9172 435.372 16.4258 436.555 16.422 437.789C16.422 439.03 16.9145 440.22 17.7913 441.099C18.6682 441.977 19.8577 442.471 21.0987 442.473H26.9107L27.0535 442.859H27.0106L22.3339 446.993C21.4506 447.828 20.9264 448.973 20.8723 450.188C20.8182 451.402 21.2383 452.59 22.0439 453.5C22.8495 454.411 23.9774 454.972 25.1893 455.066C26.4013 455.16 27.6023 454.779 28.5386 454.004L33.2081 449.87L33.3081 449.763C33.8187 450.038 34.3484 450.277 34.8932 450.477V456.089C34.9404 457.299 35.4542 458.443 36.3268 459.282C37.1993 460.121 38.3629 460.59 39.5734 460.59C40.784 460.59 41.9476 460.121 42.8201 459.282C43.6927 458.443 44.2065 457.299 44.2537 456.089V450.534C44.575 450.413 44.8963 450.284 45.2105 450.134L49.7944 454.083C50.7383 454.89 51.9645 455.29 53.2031 455.193C54.4417 455.097 55.5912 454.513 56.3989 453.569C57.2065 452.625 57.6061 451.398 57.5097 450.16C57.4132 448.921 56.8288 447.772 55.8848 446.964L51.815 443.451C51.9578 443.13 52.0863 442.801 52.2077 442.473H58.2124C59.4547 442.473 60.646 441.98 61.5244 441.101C62.4028 440.223 62.8963 439.031 62.8963 437.789C62.8944 436.548 62.4001 435.359 61.5219 434.482C60.6437 433.605 59.4534 433.112 58.2124 433.112Z"
    fill="#FFE18B" />
  <path
    d="M58.2124 433.112H52.122C52.0078 432.798 51.8792 432.491 51.7436 432.191L56.1775 428.264C56.647 427.86 57.0315 427.367 57.3087 426.813C57.5858 426.259 57.7502 425.655 57.7922 425.037C57.8341 424.419 57.7529 423.799 57.5532 423.212C57.3534 422.626 57.0392 422.085 56.6287 421.621C56.2182 421.157 55.7196 420.779 55.1619 420.51C54.6042 420.24 53.9984 420.084 53.3799 420.05C52.7613 420.017 52.1422 420.106 51.5586 420.314C50.9749 420.522 50.4383 420.843 49.98 421.26L45.3104 425.394C45.239 425.458 45.1819 425.537 45.1105 425.608C44.8178 425.473 44.5179 425.351 44.2109 425.237V419.575C44.1636 418.365 43.6499 417.221 42.7773 416.382C41.9047 415.543 40.7412 415.074 39.5306 415.074C38.32 415.074 37.1565 415.543 36.2839 416.382C35.4114 417.221 34.8976 418.365 34.8503 419.575V425.237C34.4176 425.396 33.9934 425.577 33.5794 425.78C33.448 425.617 33.3048 425.464 33.151 425.323L28.4458 421.26C27.4987 420.505 26.2962 420.147 25.0905 420.259C23.8848 420.372 22.7696 420.948 21.979 421.865C21.1883 422.782 20.7836 423.97 20.8498 425.179C20.916 426.388 21.4479 427.525 22.3339 428.35L27.0606 432.427C27.098 432.46 27.1386 432.488 27.182 432.513C27.0963 432.713 27.0249 432.92 26.9464 433.127H21.0773C19.8431 433.132 18.6612 433.626 17.7892 434.499C16.9172 435.372 16.4258 436.555 16.422 437.789C16.422 439.03 16.9145 440.22 17.7913 441.099C18.6682 441.977 19.8577 442.471 21.0987 442.473H26.9107L27.0535 442.859H27.0106L22.3339 446.993C21.4506 447.828 20.9264 448.973 20.8723 450.188C20.8182 451.402 21.2383 452.59 22.0439 453.5C22.8495 454.411 23.9774 454.972 25.1893 455.066C26.4013 455.16 27.6023 454.779 28.5386 454.004L33.2081 449.87L33.3081 449.763C33.8187 450.038 34.3484 450.277 34.8932 450.477V456.089C34.9404 457.299 35.4542 458.443 36.3268 459.282C37.1993 460.121 38.3629 460.59 39.5734 460.59C40.784 460.59 41.9476 460.121 42.8201 459.282C43.6927 458.443 44.2065 457.299 44.2537 456.089V450.534C44.575 450.413 44.8963 450.284 45.2105 450.134L49.7944 454.083C50.7383 454.89 51.9645 455.29 53.2031 455.193C54.4417 455.097 55.5912 454.513 56.3989 453.569C57.2065 452.625 57.6061 451.398 57.5097 450.16C57.4132 448.921 56.8288 447.772 55.8848 446.964L51.815 443.451C51.9578 443.13 52.0863 442.801 52.2077 442.473H58.2124C59.4547 442.473 60.646 441.98 61.5244 441.101C62.4028 440.223 62.8963 439.031 62.8963 437.789C62.8944 436.548 62.4001 435.359 61.5219 434.482C60.6437 433.605 59.4534 433.112 58.2124 433.112Z"
    fill="#FFE18B" />
  <path
    d="M58.2124 433.112H52.122C52.0078 432.798 51.8792 432.491 51.7436 432.191L56.1775 428.264C56.647 427.86 57.0315 427.367 57.3087 426.813C57.5858 426.259 57.7502 425.655 57.7922 425.037C57.8341 424.419 57.7529 423.799 57.5532 423.212C57.3534 422.626 57.0392 422.085 56.6287 421.621C56.2182 421.157 55.7196 420.779 55.1619 420.51C54.6042 420.24 53.9984 420.084 53.3799 420.05C52.7613 420.017 52.1422 420.106 51.5586 420.314C50.9749 420.522 50.4383 420.843 49.98 421.26L45.3104 425.394C45.239 425.458 45.1819 425.537 45.1105 425.608C44.8178 425.473 44.5179 425.351 44.2109 425.237V419.575C44.1636 418.365 43.6499 417.221 42.7773 416.382C41.9047 415.543 40.7412 415.074 39.5306 415.074C38.32 415.074 37.1565 415.543 36.2839 416.382C35.4114 417.221 34.8976 418.365 34.8503 419.575V425.237C34.4176 425.396 33.9934 425.577 33.5794 425.78C33.448 425.617 33.3048 425.464 33.151 425.323L28.4458 421.26C27.4987 420.505 26.2962 420.147 25.0905 420.259C23.8848 420.372 22.7696 420.948 21.979 421.865C21.1883 422.782 20.7836 423.97 20.8498 425.179C20.916 426.388 21.4479 427.525 22.3339 428.35L27.0606 432.427C27.098 432.46 27.1386 432.488 27.182 432.513C27.0963 432.713 27.0249 432.92 26.9464 433.127H21.0773C19.8431 433.132 18.6612 433.626 17.7892 434.499C16.9172 435.372 16.4258 436.555 16.422 437.789C16.422 439.03 16.9145 440.22 17.7913 441.099C18.6682 441.977 19.8577 442.471 21.0987 442.473H26.9107L27.0535 442.859H27.0106L22.3339 446.993C21.4506 447.828 20.9264 448.973 20.8723 450.188C20.8182 451.402 21.2383 452.59 22.0439 453.5C22.8495 454.411 23.9774 454.972 25.1893 455.066C26.4013 455.16 27.6023 454.779 28.5386 454.004L33.2081 449.87L33.3081 449.763C33.8187 450.038 34.3484 450.277 34.8932 450.477V456.089C34.9404 457.299 35.4542 458.443 36.3268 459.282C37.1993 460.121 38.3629 460.59 39.5734 460.59C40.784 460.59 41.9476 460.121 42.8201 459.282C43.6927 458.443 44.2065 457.299 44.2537 456.089V450.534C44.575 450.413 44.8963 450.284 45.2105 450.134L49.7944 454.083C50.7383 454.89 51.9645 455.29 53.2031 455.193C54.4417 455.097 55.5912 454.513 56.3989 453.569C57.2065 452.625 57.6061 451.398 57.5097 450.16C57.4132 448.921 56.8288 447.772 55.8848 446.964L51.815 443.451C51.9578 443.13 52.0863 442.801 52.2077 442.473H58.2124C59.4547 442.473 60.646 441.98 61.5244 441.101C62.4028 440.223 62.8963 439.031 62.8963 437.789C62.8944 436.548 62.4001 435.359 61.5219 434.482C60.6437 433.605 59.4534 433.112 58.2124 433.112Z"
    fill="#FFE18B" />
  <path
    d="M58.2124 433.112H52.122C52.0078 432.798 51.8792 432.491 51.7436 432.191L56.1775 428.264C56.647 427.86 57.0315 427.367 57.3087 426.813C57.5858 426.259 57.7502 425.655 57.7922 425.037C57.8341 424.419 57.7529 423.799 57.5532 423.212C57.3534 422.626 57.0392 422.085 56.6287 421.621C56.2182 421.157 55.7196 420.779 55.1619 420.51C54.6042 420.24 53.9984 420.084 53.3799 420.05C52.7613 420.017 52.1422 420.106 51.5586 420.314C50.9749 420.522 50.4383 420.843 49.98 421.26L45.3104 425.394C45.239 425.458 45.1819 425.537 45.1105 425.608C44.8178 425.473 44.5179 425.351 44.2109 425.237V419.575C44.1636 418.365 43.6499 417.221 42.7773 416.382C41.9047 415.543 40.7412 415.074 39.5306 415.074C38.32 415.074 37.1565 415.543 36.2839 416.382C35.4114 417.221 34.8976 418.365 34.8503 419.575V425.237C34.4176 425.396 33.9934 425.577 33.5794 425.78C33.448 425.617 33.3048 425.464 33.151 425.323L28.4458 421.26C27.4987 420.505 26.2962 420.147 25.0905 420.259C23.8848 420.372 22.7696 420.948 21.979 421.865C21.1883 422.782 20.7836 423.97 20.8498 425.179C20.916 426.388 21.4479 427.525 22.3339 428.35L27.0606 432.427C27.098 432.46 27.1386 432.488 27.182 432.513C27.0963 432.713 27.0249 432.92 26.9464 433.127H21.0773C19.8431 433.132 18.6612 433.626 17.7892 434.499C16.9172 435.372 16.4258 436.555 16.422 437.789C16.422 439.03 16.9145 440.22 17.7913 441.099C18.6682 441.977 19.8577 442.471 21.0987 442.473H26.9107L27.0535 442.859H27.0106L22.3339 446.993C21.4506 447.828 20.9264 448.973 20.8723 450.188C20.8182 451.402 21.2383 452.59 22.0439 453.5C22.8495 454.411 23.9774 454.972 25.1893 455.066C26.4013 455.16 27.6023 454.779 28.5386 454.004L33.2081 449.87L33.3081 449.763C33.8187 450.038 34.3484 450.277 34.8932 450.477V456.089C34.9404 457.299 35.4542 458.443 36.3268 459.282C37.1993 460.121 38.3629 460.59 39.5734 460.59C40.784 460.59 41.9476 460.121 42.8201 459.282C43.6927 458.443 44.2065 457.299 44.2537 456.089V450.534C44.575 450.413 44.8963 450.284 45.2105 450.134L49.7944 454.083C50.7383 454.89 51.9645 455.29 53.2031 455.193C54.4417 455.097 55.5912 454.513 56.3989 453.569C57.2065 452.625 57.6061 451.398 57.5097 450.16C57.4132 448.921 56.8288 447.772 55.8848 446.964L51.815 443.451C51.9578 443.13 52.0863 442.801 52.2077 442.473H58.2124C59.4547 442.473 60.646 441.98 61.5244 441.101C62.4028 440.223 62.8963 439.031 62.8963 437.789C62.8944 436.548 62.4001 435.359 61.5219 434.482C60.6437 433.605 59.4534 433.112 58.2124 433.112Z"
    fill="#FFE18B" />
  <path
    d="M58.2124 433.112H52.122C52.0078 432.798 51.8792 432.491 51.7436 432.191L56.1775 428.264C56.647 427.86 57.0315 427.367 57.3087 426.813C57.5858 426.259 57.7502 425.655 57.7922 425.037C57.8341 424.419 57.7529 423.799 57.5532 423.212C57.3534 422.626 57.0392 422.085 56.6287 421.621C56.2182 421.157 55.7196 420.779 55.1619 420.51C54.6042 420.24 53.9984 420.084 53.3799 420.05C52.7613 420.017 52.1422 420.106 51.5586 420.314C50.9749 420.522 50.4383 420.843 49.98 421.26L45.3104 425.394C45.239 425.458 45.1819 425.537 45.1105 425.608C44.8178 425.473 44.5179 425.351 44.2109 425.237V419.575C44.1636 418.365 43.6499 417.221 42.7773 416.382C41.9047 415.543 40.7412 415.074 39.5306 415.074C38.32 415.074 37.1565 415.543 36.2839 416.382C35.4114 417.221 34.8976 418.365 34.8503 419.575V425.237C34.4176 425.396 33.9934 425.577 33.5794 425.78C33.448 425.617 33.3048 425.464 33.151 425.323L28.4458 421.26C27.4987 420.505 26.2962 420.147 25.0905 420.259C23.8848 420.372 22.7696 420.948 21.979 421.865C21.1883 422.782 20.7836 423.97 20.8498 425.179C20.916 426.388 21.4479 427.525 22.3339 428.35L27.0606 432.427C27.098 432.46 27.1386 432.488 27.182 432.513C27.0963 432.713 27.0249 432.92 26.9464 433.127H21.0773C19.8431 433.132 18.6612 433.626 17.7892 434.499C16.9172 435.372 16.4258 436.555 16.422 437.789C16.422 439.03 16.9145 440.22 17.7913 441.099C18.6682 441.977 19.8577 442.471 21.0987 442.473H26.9107L27.0535 442.859H27.0106L22.3339 446.993C21.4506 447.828 20.9264 448.973 20.8723 450.188C20.8182 451.402 21.2383 452.59 22.0439 453.5C22.8495 454.411 23.9774 454.972 25.1893 455.066C26.4013 455.16 27.6023 454.779 28.5386 454.004L33.2081 449.87L33.3081 449.763C33.8187 450.038 34.3484 450.277 34.8932 450.477V456.089C34.9404 457.299 35.4542 458.443 36.3268 459.282C37.1993 460.121 38.3629 460.59 39.5734 460.59C40.784 460.59 41.9476 460.121 42.8201 459.282C43.6927 458.443 44.2065 457.299 44.2537 456.089V450.534C44.575 450.413 44.8963 450.284 45.2105 450.134L49.7944 454.083C50.7383 454.89 51.9645 455.29 53.2031 455.193C54.4417 455.097 55.5912 454.513 56.3989 453.569C57.2065 452.625 57.6061 451.398 57.5097 450.16C57.4132 448.921 56.8288 447.772 55.8848 446.964L51.815 443.451C51.9578 443.13 52.0863 442.801 52.2077 442.473H58.2124C59.4547 442.473 60.646 441.98 61.5244 441.101C62.4028 440.223 62.8963 439.031 62.8963 437.789C62.8944 436.548 62.4001 435.359 61.5219 434.482C60.6437 433.605 59.4534 433.112 58.2124 433.112Z"
    fill="#FFE18B" />
  <path
    d="M58.2124 433.112H52.122C52.0078 432.798 51.8792 432.491 51.7436 432.191L56.1775 428.264C56.647 427.86 57.0315 427.367 57.3087 426.813C57.5858 426.259 57.7502 425.655 57.7922 425.037C57.8341 424.419 57.7529 423.799 57.5532 423.212C57.3534 422.626 57.0392 422.085 56.6287 421.621C56.2182 421.157 55.7196 420.779 55.1619 420.51C54.6042 420.24 53.9984 420.084 53.3799 420.05C52.7613 420.017 52.1422 420.106 51.5586 420.314C50.9749 420.522 50.4383 420.843 49.98 421.26L45.3104 425.394C45.239 425.458 45.1819 425.537 45.1105 425.608C44.8178 425.473 44.5179 425.351 44.2109 425.237V419.575C44.1636 418.365 43.6499 417.221 42.7773 416.382C41.9047 415.543 40.7412 415.074 39.5306 415.074C38.32 415.074 37.1565 415.543 36.2839 416.382C35.4114 417.221 34.8976 418.365 34.8503 419.575V425.237C34.4176 425.396 33.9934 425.577 33.5794 425.78C33.448 425.617 33.3048 425.464 33.151 425.323L28.4458 421.26C27.4987 420.505 26.2962 420.147 25.0905 420.259C23.8848 420.372 22.7696 420.948 21.979 421.865C21.1883 422.782 20.7836 423.97 20.8498 425.179C20.916 426.388 21.4479 427.525 22.3339 428.35L27.0606 432.427C27.098 432.46 27.1386 432.488 27.182 432.513C27.0963 432.713 27.0249 432.92 26.9464 433.127H21.0773C19.8431 433.132 18.6612 433.626 17.7892 434.499C16.9172 435.372 16.4258 436.555 16.422 437.789C16.422 439.03 16.9145 440.22 17.7913 441.099C18.6682 441.977 19.8577 442.471 21.0987 442.473H26.9107L27.0535 442.859H27.0106L22.3339 446.993C21.4506 447.828 20.9264 448.973 20.8723 450.188C20.8182 451.402 21.2383 452.59 22.0439 453.5C22.8495 454.411 23.9774 454.972 25.1893 455.066C26.4013 455.16 27.6023 454.779 28.5386 454.004L33.2081 449.87L33.3081 449.763C33.8187 450.038 34.3484 450.277 34.8932 450.477V456.089C34.9404 457.299 35.4542 458.443 36.3268 459.282C37.1993 460.121 38.3629 460.59 39.5734 460.59C40.784 460.59 41.9476 460.121 42.8201 459.282C43.6927 458.443 44.2065 457.299 44.2537 456.089V450.534C44.575 450.413 44.8963 450.284 45.2105 450.134L49.7944 454.083C50.7383 454.89 51.9645 455.29 53.2031 455.193C54.4417 455.097 55.5912 454.513 56.3989 453.569C57.2065 452.625 57.6061 451.398 57.5097 450.16C57.4132 448.921 56.8288 447.772 55.8848 446.964L51.815 443.451C51.9578 443.13 52.0863 442.801 52.2077 442.473H58.2124C59.4547 442.473 60.646 441.98 61.5244 441.101C62.4028 440.223 62.8963 439.031 62.8963 437.789C62.8944 436.548 62.4001 435.359 61.5219 434.482C60.6437 433.605 59.4534 433.112 58.2124 433.112Z"
    fill="#FFE18B" />
  <path
    d="M58.6569 440.193L52.9847 437.975C52.9927 437.641 52.9848 437.308 52.9677 436.98L58.5273 434.937C59.1117 434.732 59.6495 434.412 60.1094 433.997C60.5693 433.582 60.9422 433.08 61.2063 432.52C61.4705 431.959 61.6207 431.352 61.6483 430.733C61.6758 430.114 61.5801 429.496 61.3668 428.915C61.1534 428.333 60.8267 427.8 60.4054 427.345C59.9842 426.891 59.4769 426.525 58.9131 426.268C58.3492 426.012 57.74 425.87 57.1208 425.851C56.5016 425.832 55.8848 425.936 55.3062 426.157L49.4517 428.306C49.3618 428.34 49.28 428.393 49.1875 428.433C48.9643 428.2 48.7292 427.978 48.4849 427.76L50.5469 422.487C50.9434 421.343 50.8817 420.09 50.3746 418.991C49.8676 417.891 48.9546 417.031 47.8272 416.59C46.6997 416.149 45.4454 416.162 44.3271 416.626C43.2089 417.09 42.3137 417.968 41.8291 419.078L39.7671 424.351C39.3063 424.341 38.8453 424.355 38.3859 424.393C38.3226 424.194 38.2449 424 38.1533 423.812L35.2507 418.315C34.6436 417.267 33.6542 416.495 32.4902 416.161C31.3263 415.827 30.0781 415.956 29.0077 416.523C27.9373 417.089 27.1279 418.048 26.7492 419.198C26.3704 420.348 26.4519 421.601 26.9765 422.692L29.8939 428.21C29.9168 428.254 29.9442 428.296 29.9757 428.334C29.8231 428.489 29.6812 428.656 29.5327 428.82L24.0666 426.683C22.9152 426.239 21.6348 426.268 20.5046 426.764C19.3744 427.259 18.486 428.182 18.0331 429.33C17.5811 430.486 17.6063 431.774 18.1032 432.911C18.6 434.048 19.5278 434.942 20.6829 435.395L26.0957 437.512L26.0883 437.923L26.0484 437.907L20.1874 440.054C19.0606 440.51 18.1552 441.387 17.6625 442.498C17.1699 443.609 17.1285 444.868 17.5473 446.01C17.966 447.151 18.812 448.084 19.9065 448.613C21.001 449.142 22.2582 449.225 23.4125 448.844L29.2669 446.694L29.3991 446.631C29.7742 447.074 30.1807 447.489 30.6153 447.873L28.5715 453.1C28.175 454.244 28.2367 455.496 28.7437 456.596C29.2508 457.695 30.1638 458.555 31.2912 458.996C32.4186 459.437 33.673 459.424 34.7912 458.96C35.9095 458.497 36.8047 457.618 37.2892 456.509L39.3122 451.335C39.6556 451.339 40.0017 451.337 40.3489 451.311L43.1801 456.658C43.7651 457.754 44.7615 458.573 45.9502 458.934C47.1388 459.295 48.4223 459.169 49.5182 458.584C50.6142 457.999 51.4329 457.003 51.7941 455.814C52.1554 454.626 52.0297 453.342 51.4447 452.246L48.9336 447.492C49.1837 447.245 49.423 446.986 49.6556 446.724L55.248 448.911C56.4049 449.364 57.6942 449.338 58.8321 448.84C59.9701 448.341 60.8636 447.412 61.3159 446.255C61.7661 445.098 61.739 443.81 61.2404 442.674C60.7419 441.537 59.8127 440.645 58.6569 440.193Z"
    fill="#FFE18B" />
  <path
    d="M108.05 450.355H101.988C101.874 450.041 101.745 449.741 101.602 449.442L106.043 445.515C106.927 444.679 107.451 443.534 107.505 442.319C107.559 441.105 107.139 439.917 106.333 439.007C105.528 438.096 104.4 437.535 103.188 437.441C101.976 437.347 100.775 437.728 99.8386 438.503L95.1691 442.637C95.0988 442.705 95.0321 442.777 94.9692 442.851C94.6764 442.716 94.3694 442.594 94.0624 442.48V436.818C94.0151 435.608 93.5013 434.464 92.6288 433.625C91.7562 432.786 90.5927 432.317 89.3821 432.317C88.1715 432.317 87.008 432.786 86.1354 433.625C85.2629 434.464 84.7491 435.608 84.7018 436.818V442.48C84.2734 442.637 83.8522 442.823 83.4381 443.023C83.3046 442.862 83.1616 442.709 83.0097 442.566L78.283 438.489C77.8218 438.059 77.2787 437.727 76.6861 437.512C76.0935 437.298 75.4637 437.205 74.8343 437.239C74.205 437.273 73.589 437.435 73.0234 437.713C72.4578 437.991 71.9542 438.38 71.5426 438.858C71.1311 439.335 70.8201 439.891 70.6284 440.491C70.4367 441.091 70.3681 441.724 70.4268 442.352C70.4855 442.98 70.6702 443.589 70.9699 444.143C71.2697 444.698 71.6782 445.186 72.1711 445.579L76.8907 449.656C76.9318 449.687 76.9747 449.715 77.0192 449.741C76.9335 449.941 76.855 450.148 76.7836 450.355H70.9145C69.6742 450.355 68.4846 450.848 67.6076 451.725C66.7305 452.602 66.2378 453.792 66.2378 455.032C66.2378 456.273 66.7303 457.463 67.6071 458.342C68.484 459.22 69.6735 459.714 70.9145 459.716H76.7265C76.7693 459.845 76.8193 459.98 76.8693 460.109C76.8693 460.109 76.8693 460.109 76.8264 460.109L72.1497 464.243C71.666 464.643 71.2677 465.137 70.9786 465.695C70.6895 466.252 70.5155 466.862 70.467 467.488C70.4184 468.114 70.4963 468.744 70.6959 469.339C70.8956 469.935 71.2129 470.484 71.6291 470.955C72.0453 471.425 72.5519 471.807 73.1187 472.077C73.6854 472.348 74.3008 472.502 74.9282 472.53C75.5557 472.558 76.1823 472.459 76.7709 472.24C77.3595 472.021 77.898 471.686 78.3544 471.254L83.0239 467.12L83.1239 467.02C83.6341 467.292 84.1612 467.53 84.7018 467.734V473.382C84.7491 474.592 85.2629 475.736 86.1354 476.575C87.008 477.414 88.1715 477.883 89.3821 477.883C90.5927 477.883 91.7562 477.414 92.6288 476.575C93.5013 475.736 94.0151 474.592 94.0624 473.382V467.741C94.3908 467.62 94.7121 467.491 95.0263 467.341L99.603 471.29C100.068 471.692 100.608 471.998 101.191 472.191C101.775 472.384 102.39 472.461 103.003 472.416C103.616 472.371 104.214 472.206 104.764 471.93C105.313 471.654 105.802 471.273 106.204 470.808C106.606 470.343 106.912 469.803 107.105 469.22C107.298 468.636 107.375 468.021 107.33 467.408C107.285 466.795 107.12 466.197 106.844 465.647C106.568 465.098 106.187 464.609 105.722 464.207L101.645 460.694C101.795 460.373 101.924 460.044 102.045 459.716H108.05C109.291 459.714 110.48 459.22 111.357 458.342C112.234 457.463 112.726 456.273 112.726 455.032C112.726 454.418 112.605 453.81 112.37 453.242C112.135 452.675 111.791 452.16 111.357 451.725C110.922 451.291 110.407 450.946 109.839 450.711C109.272 450.476 108.664 450.355 108.05 450.355Z"
    fill="#FFE18B" />
  <path
    d="M108.05 450.355H101.988C101.874 450.041 101.745 449.741 101.602 449.442L106.043 445.515C106.927 444.679 107.451 443.534 107.505 442.319C107.559 441.105 107.139 439.917 106.333 439.007C105.528 438.096 104.4 437.535 103.188 437.441C101.976 437.347 100.775 437.728 99.8386 438.503L95.1691 442.637C95.0988 442.705 95.0321 442.777 94.9692 442.851C94.6764 442.716 94.3694 442.594 94.0624 442.48V436.818C94.0151 435.608 93.5013 434.464 92.6288 433.625C91.7562 432.786 90.5927 432.317 89.3821 432.317C88.1715 432.317 87.008 432.786 86.1354 433.625C85.2629 434.464 84.7491 435.608 84.7018 436.818V442.48C84.2734 442.637 83.8522 442.823 83.4381 443.023C83.3046 442.862 83.1616 442.709 83.0097 442.566L78.283 438.489C77.8218 438.059 77.2787 437.727 76.6861 437.512C76.0935 437.298 75.4637 437.205 74.8343 437.239C74.205 437.273 73.589 437.435 73.0234 437.713C72.4578 437.991 71.9542 438.38 71.5426 438.858C71.1311 439.335 70.8201 439.891 70.6284 440.491C70.4367 441.091 70.3681 441.724 70.4268 442.352C70.4855 442.98 70.6702 443.589 70.9699 444.143C71.2697 444.698 71.6782 445.186 72.1711 445.579L76.8907 449.656C76.9318 449.687 76.9747 449.715 77.0192 449.741C76.9335 449.941 76.855 450.148 76.7836 450.355H70.9145C69.6742 450.355 68.4846 450.848 67.6076 451.725C66.7305 452.602 66.2378 453.792 66.2378 455.032C66.2378 456.273 66.7303 457.463 67.6071 458.342C68.484 459.22 69.6735 459.714 70.9145 459.716H76.7265C76.7693 459.845 76.8193 459.98 76.8693 460.109C76.8693 460.109 76.8693 460.109 76.8264 460.109L72.1497 464.243C71.666 464.643 71.2677 465.137 70.9786 465.695C70.6895 466.252 70.5155 466.862 70.467 467.488C70.4184 468.114 70.4963 468.744 70.6959 469.339C70.8956 469.935 71.2129 470.484 71.6291 470.955C72.0453 471.425 72.5519 471.807 73.1187 472.077C73.6854 472.348 74.3008 472.502 74.9282 472.53C75.5557 472.558 76.1823 472.459 76.7709 472.24C77.3595 472.021 77.898 471.686 78.3544 471.254L83.0239 467.12L83.1239 467.02C83.6341 467.292 84.1612 467.53 84.7018 467.734V473.382C84.7491 474.592 85.2629 475.736 86.1354 476.575C87.008 477.414 88.1715 477.883 89.3821 477.883C90.5927 477.883 91.7562 477.414 92.6288 476.575C93.5013 475.736 94.0151 474.592 94.0624 473.382V467.741C94.3908 467.62 94.7121 467.491 95.0263 467.341L99.603 471.29C100.068 471.692 100.608 471.998 101.191 472.191C101.775 472.384 102.39 472.461 103.003 472.416C103.616 472.371 104.214 472.206 104.764 471.93C105.313 471.654 105.802 471.273 106.204 470.808C106.606 470.343 106.912 469.803 107.105 469.22C107.298 468.636 107.375 468.021 107.33 467.408C107.285 466.795 107.12 466.197 106.844 465.647C106.568 465.098 106.187 464.609 105.722 464.207L101.645 460.694C101.795 460.373 101.924 460.044 102.045 459.716H108.05C109.291 459.714 110.48 459.22 111.357 458.342C112.234 457.463 112.726 456.273 112.726 455.032C112.726 454.418 112.605 453.81 112.37 453.242C112.135 452.675 111.791 452.16 111.357 451.725C110.922 451.291 110.407 450.946 109.839 450.711C109.272 450.476 108.664 450.355 108.05 450.355Z"
    fill="#FFE18B" />
  <path
    d="M108.05 450.355H101.988C101.874 450.041 101.745 449.741 101.602 449.442L106.043 445.515C106.927 444.679 107.451 443.534 107.505 442.319C107.559 441.105 107.139 439.917 106.333 439.007C105.528 438.096 104.4 437.535 103.188 437.441C101.976 437.347 100.775 437.728 99.8386 438.503L95.1691 442.637C95.0988 442.705 95.0321 442.777 94.9692 442.851C94.6764 442.716 94.3694 442.594 94.0624 442.48V436.818C94.0151 435.608 93.5013 434.464 92.6288 433.625C91.7562 432.786 90.5927 432.317 89.3821 432.317C88.1715 432.317 87.008 432.786 86.1354 433.625C85.2629 434.464 84.7491 435.608 84.7018 436.818V442.48C84.2734 442.637 83.8522 442.823 83.4381 443.023C83.3046 442.862 83.1616 442.709 83.0097 442.566L78.283 438.489C77.8218 438.059 77.2787 437.727 76.6861 437.512C76.0935 437.298 75.4637 437.205 74.8343 437.239C74.205 437.273 73.589 437.435 73.0234 437.713C72.4578 437.991 71.9542 438.38 71.5426 438.858C71.1311 439.335 70.8201 439.891 70.6284 440.491C70.4367 441.091 70.3681 441.724 70.4268 442.352C70.4855 442.98 70.6702 443.589 70.9699 444.143C71.2697 444.698 71.6782 445.186 72.1711 445.579L76.8907 449.656C76.9318 449.687 76.9747 449.715 77.0192 449.741C76.9335 449.941 76.855 450.148 76.7836 450.355H70.9145C69.6742 450.355 68.4846 450.848 67.6076 451.725C66.7305 452.602 66.2378 453.792 66.2378 455.032C66.2378 456.273 66.7303 457.463 67.6071 458.342C68.484 459.22 69.6735 459.714 70.9145 459.716H76.7265C76.7693 459.845 76.8193 459.98 76.8693 460.109C76.8693 460.109 76.8693 460.109 76.8264 460.109L72.1497 464.243C71.666 464.643 71.2677 465.137 70.9786 465.695C70.6895 466.252 70.5155 466.862 70.467 467.488C70.4184 468.114 70.4963 468.744 70.6959 469.339C70.8956 469.935 71.2129 470.484 71.6291 470.955C72.0453 471.425 72.5519 471.807 73.1187 472.077C73.6854 472.348 74.3008 472.502 74.9282 472.53C75.5557 472.558 76.1823 472.459 76.7709 472.24C77.3595 472.021 77.898 471.686 78.3544 471.254L83.0239 467.12L83.1239 467.02C83.6341 467.292 84.1612 467.53 84.7018 467.734V473.382C84.7491 474.592 85.2629 475.736 86.1354 476.575C87.008 477.414 88.1715 477.883 89.3821 477.883C90.5927 477.883 91.7562 477.414 92.6288 476.575C93.5013 475.736 94.0151 474.592 94.0624 473.382V467.741C94.3908 467.62 94.7121 467.491 95.0263 467.341L99.603 471.29C100.068 471.692 100.608 471.998 101.191 472.191C101.775 472.384 102.39 472.461 103.003 472.416C103.616 472.371 104.214 472.206 104.764 471.93C105.313 471.654 105.802 471.273 106.204 470.808C106.606 470.343 106.912 469.803 107.105 469.22C107.298 468.636 107.375 468.021 107.33 467.408C107.285 466.795 107.12 466.197 106.844 465.647C106.568 465.098 106.187 464.609 105.722 464.207L101.645 460.694C101.795 460.373 101.924 460.044 102.045 459.716H108.05C109.291 459.714 110.48 459.22 111.357 458.342C112.234 457.463 112.726 456.273 112.726 455.032C112.726 454.418 112.605 453.81 112.37 453.242C112.135 452.675 111.791 452.16 111.357 451.725C110.922 451.291 110.407 450.946 109.839 450.711C109.272 450.476 108.664 450.355 108.05 450.355Z"
    fill="#FFE18B" />
  <path
    d="M108.05 450.355H101.988C101.874 450.041 101.745 449.741 101.602 449.442L106.043 445.515C106.927 444.679 107.451 443.534 107.505 442.319C107.559 441.105 107.139 439.917 106.333 439.007C105.528 438.096 104.4 437.535 103.188 437.441C101.976 437.347 100.775 437.728 99.8386 438.503L95.1691 442.637C95.0988 442.705 95.0321 442.777 94.9692 442.851C94.6764 442.716 94.3694 442.594 94.0624 442.48V436.818C94.0151 435.608 93.5013 434.464 92.6288 433.625C91.7562 432.786 90.5927 432.317 89.3821 432.317C88.1715 432.317 87.008 432.786 86.1354 433.625C85.2629 434.464 84.7491 435.608 84.7018 436.818V442.48C84.2734 442.637 83.8522 442.823 83.4381 443.023C83.3046 442.862 83.1616 442.709 83.0097 442.566L78.283 438.489C77.8218 438.059 77.2787 437.727 76.6861 437.512C76.0935 437.298 75.4637 437.205 74.8343 437.239C74.205 437.273 73.589 437.435 73.0234 437.713C72.4578 437.991 71.9542 438.38 71.5426 438.858C71.1311 439.335 70.8201 439.891 70.6284 440.491C70.4367 441.091 70.3681 441.724 70.4268 442.352C70.4855 442.98 70.6702 443.589 70.9699 444.143C71.2697 444.698 71.6782 445.186 72.1711 445.579L76.8907 449.656C76.9318 449.687 76.9747 449.715 77.0192 449.741C76.9335 449.941 76.855 450.148 76.7836 450.355H70.9145C69.6742 450.355 68.4846 450.848 67.6076 451.725C66.7305 452.602 66.2378 453.792 66.2378 455.032C66.2378 456.273 66.7303 457.463 67.6071 458.342C68.484 459.22 69.6735 459.714 70.9145 459.716H76.7265C76.7693 459.845 76.8193 459.98 76.8693 460.109C76.8693 460.109 76.8693 460.109 76.8264 460.109L72.1497 464.243C71.666 464.643 71.2677 465.137 70.9786 465.695C70.6895 466.252 70.5155 466.862 70.467 467.488C70.4184 468.114 70.4963 468.744 70.6959 469.339C70.8956 469.935 71.2129 470.484 71.6291 470.955C72.0453 471.425 72.5519 471.807 73.1187 472.077C73.6854 472.348 74.3008 472.502 74.9282 472.53C75.5557 472.558 76.1823 472.459 76.7709 472.24C77.3595 472.021 77.898 471.686 78.3544 471.254L83.0239 467.12L83.1239 467.02C83.6341 467.292 84.1612 467.53 84.7018 467.734V473.382C84.7491 474.592 85.2629 475.736 86.1354 476.575C87.008 477.414 88.1715 477.883 89.3821 477.883C90.5927 477.883 91.7562 477.414 92.6288 476.575C93.5013 475.736 94.0151 474.592 94.0624 473.382V467.741C94.3908 467.62 94.7121 467.491 95.0263 467.341L99.603 471.29C100.068 471.692 100.608 471.998 101.191 472.191C101.775 472.384 102.39 472.461 103.003 472.416C103.616 472.371 104.214 472.206 104.764 471.93C105.313 471.654 105.802 471.273 106.204 470.808C106.606 470.343 106.912 469.803 107.105 469.22C107.298 468.636 107.375 468.021 107.33 467.408C107.285 466.795 107.12 466.197 106.844 465.647C106.568 465.098 106.187 464.609 105.722 464.207L101.645 460.694C101.795 460.373 101.924 460.044 102.045 459.716H108.05C109.291 459.714 110.48 459.22 111.357 458.342C112.234 457.463 112.726 456.273 112.726 455.032C112.726 454.418 112.605 453.81 112.37 453.242C112.135 452.675 111.791 452.16 111.357 451.725C110.922 451.291 110.407 450.946 109.839 450.711C109.272 450.476 108.664 450.355 108.05 450.355Z"
    fill="#FFE18B" />
  <path
    d="M108.05 450.355H101.988C101.874 450.041 101.745 449.741 101.602 449.442L106.043 445.515C106.927 444.679 107.451 443.534 107.505 442.319C107.559 441.105 107.139 439.917 106.333 439.007C105.528 438.096 104.4 437.535 103.188 437.441C101.976 437.347 100.775 437.728 99.8386 438.503L95.1691 442.637C95.0988 442.705 95.0321 442.777 94.9692 442.851C94.6764 442.716 94.3694 442.594 94.0624 442.48V436.818C94.0151 435.608 93.5013 434.464 92.6288 433.625C91.7562 432.786 90.5927 432.317 89.3821 432.317C88.1715 432.317 87.008 432.786 86.1354 433.625C85.2629 434.464 84.7491 435.608 84.7018 436.818V442.48C84.2734 442.637 83.8522 442.823 83.4381 443.023C83.3046 442.862 83.1616 442.709 83.0097 442.566L78.283 438.489C77.8218 438.059 77.2787 437.727 76.6861 437.512C76.0935 437.298 75.4637 437.205 74.8343 437.239C74.205 437.273 73.589 437.435 73.0234 437.713C72.4578 437.991 71.9542 438.38 71.5426 438.858C71.1311 439.335 70.8201 439.891 70.6284 440.491C70.4367 441.091 70.3681 441.724 70.4268 442.352C70.4855 442.98 70.6702 443.589 70.9699 444.143C71.2697 444.698 71.6782 445.186 72.1711 445.579L76.8907 449.656C76.9318 449.687 76.9747 449.715 77.0192 449.741C76.9335 449.941 76.855 450.148 76.7836 450.355H70.9145C69.6742 450.355 68.4846 450.848 67.6076 451.725C66.7305 452.602 66.2378 453.792 66.2378 455.032C66.2378 456.273 66.7303 457.463 67.6071 458.342C68.484 459.22 69.6735 459.714 70.9145 459.716H76.7265C76.7693 459.845 76.8193 459.98 76.8693 460.109C76.8693 460.109 76.8693 460.109 76.8264 460.109L72.1497 464.243C71.666 464.643 71.2677 465.137 70.9786 465.695C70.6895 466.252 70.5155 466.862 70.467 467.488C70.4184 468.114 70.4963 468.744 70.6959 469.339C70.8956 469.935 71.2129 470.484 71.6291 470.955C72.0453 471.425 72.5519 471.807 73.1187 472.077C73.6854 472.348 74.3008 472.502 74.9282 472.53C75.5557 472.558 76.1823 472.459 76.7709 472.24C77.3595 472.021 77.898 471.686 78.3544 471.254L83.0239 467.12L83.1239 467.02C83.6341 467.292 84.1612 467.53 84.7018 467.734V473.382C84.7491 474.592 85.2629 475.736 86.1354 476.575C87.008 477.414 88.1715 477.883 89.3821 477.883C90.5927 477.883 91.7562 477.414 92.6288 476.575C93.5013 475.736 94.0151 474.592 94.0624 473.382V467.741C94.3908 467.62 94.7121 467.491 95.0263 467.341L99.603 471.29C100.068 471.692 100.608 471.998 101.191 472.191C101.775 472.384 102.39 472.461 103.003 472.416C103.616 472.371 104.214 472.206 104.764 471.93C105.313 471.654 105.802 471.273 106.204 470.808C106.606 470.343 106.912 469.803 107.105 469.22C107.298 468.636 107.375 468.021 107.33 467.408C107.285 466.795 107.12 466.197 106.844 465.647C106.568 465.098 106.187 464.609 105.722 464.207L101.645 460.694C101.795 460.373 101.924 460.044 102.045 459.716H108.05C109.291 459.714 110.48 459.22 111.357 458.342C112.234 457.463 112.726 456.273 112.726 455.032C112.726 454.418 112.605 453.81 112.37 453.242C112.135 452.675 111.791 452.16 111.357 451.725C110.922 451.291 110.407 450.946 109.839 450.711C109.272 450.476 108.664 450.355 108.05 450.355Z"
    fill="#FFE18B" />
  <path
    d="M108.05 450.355H101.988C101.874 450.041 101.745 449.741 101.602 449.442L106.043 445.515C106.927 444.679 107.451 443.534 107.505 442.319C107.559 441.105 107.139 439.917 106.333 439.007C105.528 438.096 104.4 437.535 103.188 437.441C101.976 437.347 100.775 437.728 99.8386 438.503L95.1691 442.637C95.0988 442.705 95.0321 442.777 94.9692 442.851C94.6764 442.716 94.3694 442.594 94.0624 442.48V436.818C94.0151 435.608 93.5013 434.464 92.6288 433.625C91.7562 432.786 90.5927 432.317 89.3821 432.317C88.1715 432.317 87.008 432.786 86.1354 433.625C85.2629 434.464 84.7491 435.608 84.7018 436.818V442.48C84.2734 442.637 83.8522 442.823 83.4381 443.023C83.3046 442.862 83.1616 442.709 83.0097 442.566L78.283 438.489C77.8218 438.059 77.2787 437.727 76.6861 437.512C76.0935 437.298 75.4637 437.205 74.8343 437.239C74.205 437.273 73.589 437.435 73.0234 437.713C72.4578 437.991 71.9542 438.38 71.5426 438.858C71.1311 439.335 70.8201 439.891 70.6284 440.491C70.4367 441.091 70.3681 441.724 70.4268 442.352C70.4855 442.98 70.6702 443.589 70.9699 444.143C71.2697 444.698 71.6782 445.186 72.1711 445.579L76.8907 449.656C76.9318 449.687 76.9747 449.715 77.0192 449.741C76.9335 449.941 76.855 450.148 76.7836 450.355H70.9145C69.6742 450.355 68.4846 450.848 67.6076 451.725C66.7305 452.602 66.2378 453.792 66.2378 455.032C66.2378 456.273 66.7303 457.463 67.6071 458.342C68.484 459.22 69.6735 459.714 70.9145 459.716H76.7265C76.7693 459.845 76.8193 459.98 76.8693 460.109C76.8693 460.109 76.8693 460.109 76.8264 460.109L72.1497 464.243C71.666 464.643 71.2677 465.137 70.9786 465.695C70.6895 466.252 70.5155 466.862 70.467 467.488C70.4184 468.114 70.4963 468.744 70.6959 469.339C70.8956 469.935 71.2129 470.484 71.6291 470.955C72.0453 471.425 72.5519 471.807 73.1187 472.077C73.6854 472.348 74.3008 472.502 74.9282 472.53C75.5557 472.558 76.1823 472.459 76.7709 472.24C77.3595 472.021 77.898 471.686 78.3544 471.254L83.0239 467.12L83.1239 467.02C83.6341 467.292 84.1612 467.53 84.7018 467.734V473.382C84.7491 474.592 85.2629 475.736 86.1354 476.575C87.008 477.414 88.1715 477.883 89.3821 477.883C90.5927 477.883 91.7562 477.414 92.6288 476.575C93.5013 475.736 94.0151 474.592 94.0624 473.382V467.741C94.3908 467.62 94.7121 467.491 95.0263 467.341L99.603 471.29C100.068 471.692 100.608 471.998 101.191 472.191C101.775 472.384 102.39 472.461 103.003 472.416C103.616 472.371 104.214 472.206 104.764 471.93C105.313 471.654 105.802 471.273 106.204 470.808C106.606 470.343 106.912 469.803 107.105 469.22C107.298 468.636 107.375 468.021 107.33 467.408C107.285 466.795 107.12 466.197 106.844 465.647C106.568 465.098 106.187 464.609 105.722 464.207L101.645 460.694C101.795 460.373 101.924 460.044 102.045 459.716H108.05C109.291 459.714 110.48 459.22 111.357 458.342C112.234 457.463 112.726 456.273 112.726 455.032C112.726 454.418 112.605 453.81 112.37 453.242C112.135 452.675 111.791 452.16 111.357 451.725C110.922 451.291 110.407 450.946 109.839 450.711C109.272 450.476 108.664 450.355 108.05 450.355Z"
    fill="#FFE18B" />
  <path
    d="M107.935 460.275L102.685 457.244C102.743 456.915 102.782 456.591 102.808 456.26L108.618 455.079C109.8 454.798 110.827 454.068 111.481 453.043C112.135 452.018 112.365 450.78 112.123 449.588C111.88 448.397 111.184 447.347 110.182 446.66C109.179 445.972 107.949 445.702 106.75 445.905L100.639 447.15C100.544 447.174 100.451 447.203 100.359 447.236C100.173 446.972 99.968 446.713 99.7592 446.461L102.59 441.557C103.154 440.486 103.281 439.238 102.945 438.075C102.609 436.912 101.836 435.925 100.787 435.319C99.7391 434.714 98.497 434.538 97.3218 434.829C96.1466 435.119 95.1295 435.853 94.4837 436.877L91.6527 441.781C91.2032 441.702 90.7455 441.653 90.2869 441.619C90.2518 441.413 90.2042 441.209 90.1444 441.009L88.0894 435.115C87.9049 434.512 87.6006 433.953 87.1947 433.471C86.7889 432.988 86.29 432.593 85.7277 432.308C85.1654 432.023 84.5515 431.855 83.9226 431.813C83.2937 431.771 82.6628 431.856 82.0677 432.064C81.4726 432.272 80.9255 432.597 80.4593 433.021C79.993 433.446 79.6171 433.959 79.3542 434.532C79.0912 435.105 78.9466 435.725 78.9289 436.355C78.9113 436.985 79.021 437.612 79.2514 438.199L81.3002 444.089C81.3203 444.137 81.3432 444.183 81.3687 444.228C81.1945 444.358 81.023 444.498 80.8576 444.642L75.7748 441.707C74.7007 441.087 73.4241 440.919 72.2261 441.24C71.028 441.561 70.0065 442.345 69.3863 443.419C68.7658 444.494 68.5972 445.771 68.9175 446.97C69.2378 448.169 70.0208 449.192 71.0946 449.814L76.1279 452.72C76.1007 452.852 76.0762 452.995 76.0552 453.131C76.0552 453.131 76.0552 453.131 76.0181 453.11L69.9009 454.352C69.2817 454.457 68.6899 454.685 68.1608 455.023C67.6317 455.362 67.176 455.803 66.8208 456.321C66.4657 456.839 66.2183 457.423 66.0935 458.039C65.9687 458.654 65.9689 459.288 66.0942 459.904C66.2195 460.519 66.4672 461.103 66.8228 461.621C67.1783 462.139 67.6343 462.58 68.1637 462.918C68.6931 463.256 69.285 463.484 69.9043 463.588C70.5236 463.693 71.1576 463.672 71.7685 463.526L77.8795 462.281L78.0161 462.244C78.3223 462.734 78.6595 463.204 79.0256 463.651L76.2018 468.542C75.6379 469.614 75.5106 470.862 75.8467 472.025C76.1828 473.188 76.9561 474.175 78.0045 474.781C79.0529 475.386 80.2949 475.562 81.4701 475.271C82.6453 474.981 83.6625 474.247 84.3082 473.223L87.1285 468.338C87.4737 468.397 87.8162 468.446 88.1632 468.474L90.1526 474.181C90.3544 474.762 90.6687 475.297 91.0773 475.756C91.486 476.215 91.981 476.589 92.5342 476.857C93.0874 477.124 93.688 477.281 94.3015 477.316C94.9151 477.352 95.5296 477.266 96.1101 477.064C96.6906 476.863 97.2256 476.548 97.6847 476.14C98.1437 475.731 98.5178 475.236 98.7855 474.683C99.0532 474.13 99.2094 473.529 99.245 472.915C99.2806 472.302 99.1951 471.687 98.9932 471.107L97.2189 466.026C97.5094 465.823 97.7849 465.603 98.0543 465.379L103.255 468.381C104.33 469 105.608 469.167 106.806 468.845C108.004 468.523 109.026 467.738 109.647 466.663C109.954 466.131 110.153 465.544 110.233 464.935C110.313 464.327 110.273 463.708 110.114 463.115C109.955 462.521 109.681 461.965 109.307 461.478C108.933 460.991 108.467 460.582 107.935 460.275Z"
    fill="#FFE18B" />
  <path
    d="M37.3879 443.606C40.5756 444.853 44.1703 443.279 45.4168 440.091C46.6633 436.904 45.0896 433.309 41.9019 432.063C38.7141 430.816 35.1195 432.39 33.873 435.577C32.6265 438.765 34.2001 442.36 37.3879 443.606Z"
    fill="white" />
  <path
    d="M86.2283 460.744C89.1926 462.456 92.9829 461.44 94.6943 458.476C96.4057 455.512 95.3901 451.721 92.4259 450.01C89.4616 448.299 85.6713 449.314 83.9599 452.278C82.2485 455.243 83.2641 459.033 86.2283 460.744Z"
    fill="white" />
  <path
    d="M97.5 566C95.4233 566 93.3932 565.384 91.6665 564.23C89.9398 563.077 88.594 561.437 87.7993 559.518C87.0046 557.6 86.7966 555.488 87.2018 553.452C87.6069 551.415 88.6069 549.544 90.0754 548.075C91.5438 546.607 93.4148 545.607 95.4516 545.202C97.4884 544.797 99.5996 545.005 101.518 545.799C103.437 546.594 105.077 547.94 106.23 549.667C107.384 551.393 108 553.423 108 555.5C107.997 558.284 106.889 560.953 104.921 562.921C102.952 564.889 100.284 565.997 97.5 566ZM97.5 547.555C95.9286 547.555 94.3924 548.021 93.0859 548.894C91.7793 549.767 90.7609 551.008 90.1595 552.459C89.5582 553.911 89.4008 555.509 89.7074 557.05C90.014 558.591 90.7707 560.007 91.8819 561.118C92.993 562.229 94.4087 562.986 95.95 563.293C97.4912 563.599 99.0887 563.442 100.541 562.84C101.992 562.239 103.233 561.221 104.106 559.914C104.979 558.608 105.445 557.071 105.445 555.5C105.44 553.394 104.601 551.376 103.113 549.887C101.624 548.399 99.6057 547.56 97.5 547.555Z"
    fill="#262626" />
  <path
    d="M79 586C77.6155 586 76.2622 585.589 75.111 584.82C73.9599 584.051 73.0627 582.958 72.5328 581.679C72.003 580.4 71.8644 578.992 72.1345 577.634C72.4046 576.276 73.0713 575.029 74.0503 574.05C75.0292 573.071 76.2765 572.405 77.6344 572.135C78.9922 571.864 80.3997 572.003 81.6788 572.533C82.9579 573.063 84.0511 573.96 84.8203 575.111C85.5895 576.262 86 577.616 86 579C85.9984 580.856 85.2604 582.636 83.9479 583.948C82.6355 585.26 80.856 585.998 79 586ZM79 574.458C78.1017 574.458 77.2236 574.725 76.4768 575.224C75.7299 575.723 75.1478 576.432 74.804 577.262C74.4603 578.092 74.3703 579.005 74.5456 579.886C74.7208 580.767 75.1534 581.576 75.7885 582.211C76.4237 582.847 77.233 583.279 78.114 583.454C78.995 583.63 79.9081 583.54 80.738 583.196C81.5679 582.852 82.2772 582.27 82.7763 581.523C83.2753 580.776 83.5417 579.898 83.5417 579C83.5401 577.796 83.0611 576.642 82.2097 575.79C81.3583 574.939 80.204 574.46 79 574.458Z"
    fill="#262626" />
</svg>